<svg width="526" height="507" viewBox="0 0 526 507" fill="none" xmlns="http://www.w3.org/2000/svg">
<path d="M262 507C227.594 507 193.524 500.443 161.737 487.703C129.95 474.964 101.067 456.291 76.7379 432.752C52.409 409.212 33.1102 381.266 19.9435 350.51C6.77679 319.754 -5.57519e-05 286.79 -4.92803e-05 253.5C-4.28087e-05 220.21 6.77682 187.246 19.9435 156.49C33.1103 125.734 52.4091 97.7881 76.738 74.2484C101.067 50.7088 129.95 32.0361 161.737 19.2965C193.524 6.55696 227.594 -5.82358e-06 262 -2.5751e-06L262 253.5L262 507Z" fill="url(#paint0_linear_191_114)"/>
<path d="M474.874 110.906C504.247 151.776 520.315 200.213 521.011 249.989C521.708 299.765 507.002 348.605 478.784 390.23" stroke="url(#paint1_linear_191_114)" stroke-width="8"/>
<path d="M19.3973 223.943H31.0873L64.5473 275.183H52.6473L19.3973 223.943ZM18.6973 275.183L36.7573 246.693L41.1673 255.933L30.1073 275.183H18.6973ZM41.7273 243.263L52.7873 223.943H63.9873L46.4873 251.173L41.7273 243.263ZM88.2746 223.943C94.4346 223.943 99.1712 225.46 102.485 228.493C105.798 231.526 107.455 235.633 107.455 240.813C107.455 242.866 107.151 244.943 106.545 247.043C105.938 249.096 104.935 250.963 103.535 252.643C102.181 254.323 100.361 255.676 98.0746 256.703C95.8346 257.73 93.0812 258.243 89.8146 258.243H82.4646V275.183H73.2946V223.943H88.2746ZM89.7446 249.283C91.4246 249.283 92.8012 249.003 93.8746 248.443C94.9946 247.883 95.8579 247.16 96.4646 246.273C97.1179 245.386 97.5846 244.476 97.8646 243.543C98.1446 242.61 98.2846 241.77 98.2846 241.023C98.2846 240.37 98.1679 239.6 97.9346 238.713C97.7479 237.78 97.3512 236.87 96.7446 235.983C96.1846 235.05 95.3446 234.303 94.2246 233.743C93.1512 233.136 91.7046 232.833 89.8846 232.833H82.4646V249.283H89.7446ZM123.345 245.013L124.185 253.413L123.975 252.223C124.815 250.403 125.981 248.863 127.475 247.603C129.015 246.343 130.531 245.363 132.025 244.663C133.565 243.963 134.778 243.613 135.665 243.613L135.245 252.503C133.005 252.27 131.045 252.666 129.365 253.693C127.731 254.673 126.471 256.003 125.585 257.683C124.698 259.316 124.255 261.043 124.255 262.863V275.183H115.365V245.013H123.345ZM139.713 259.783C139.713 256.703 140.436 253.95 141.883 251.523C143.33 249.096 145.336 247.183 147.903 245.783C150.516 244.383 153.503 243.683 156.863 243.683C160.27 243.683 163.233 244.383 165.753 245.783C168.273 247.183 170.21 249.096 171.563 251.523C172.916 253.95 173.593 256.703 173.593 259.783C173.593 262.816 172.893 265.57 171.493 268.043C170.14 270.47 168.203 272.406 165.683 273.853C163.21 275.253 160.223 275.953 156.723 275.953C153.456 275.953 150.54 275.323 147.973 274.063C145.406 272.756 143.376 270.89 141.883 268.463C140.436 266.036 139.713 263.143 139.713 259.783ZM148.673 259.853C148.673 261.486 149.023 262.98 149.723 264.333C150.423 265.686 151.356 266.76 152.523 267.553C153.736 268.346 155.09 268.743 156.583 268.743C159.01 268.743 160.946 267.903 162.393 266.223C163.886 264.496 164.633 262.373 164.633 259.853C164.633 257.286 163.886 255.163 162.393 253.483C160.946 251.756 159.01 250.893 156.583 250.893C155.09 250.893 153.736 251.29 152.523 252.083C151.356 252.876 150.423 253.95 149.723 255.303C149.023 256.656 148.673 258.173 148.673 259.853ZM179.225 259.783C179.225 256.703 179.948 253.95 181.395 251.523C182.841 249.096 184.848 247.183 187.415 245.783C190.028 244.383 193.015 243.683 196.375 243.683C199.781 243.683 202.745 244.383 205.265 245.783C207.785 247.183 209.721 249.096 211.075 251.523C212.428 253.95 213.105 256.703 213.105 259.783C213.105 262.816 212.405 265.57 211.005 268.043C209.651 270.47 207.715 272.406 205.195 273.853C202.721 275.253 199.735 275.953 196.235 275.953C192.968 275.953 190.051 275.323 187.485 274.063C184.918 272.756 182.888 270.89 181.395 268.463C179.948 266.036 179.225 263.143 179.225 259.783ZM188.185 259.853C188.185 261.486 188.535 262.98 189.235 264.333C189.935 265.686 190.868 266.76 192.035 267.553C193.248 268.346 194.601 268.743 196.095 268.743C198.521 268.743 200.458 267.903 201.905 266.223C203.398 264.496 204.145 262.373 204.145 259.853C204.145 257.286 203.398 255.163 201.905 253.483C200.458 251.756 198.521 250.893 196.095 250.893C194.601 250.893 193.248 251.29 192.035 252.083C190.868 252.876 189.935 253.95 189.235 255.303C188.535 256.656 188.185 258.173 188.185 259.853ZM223.917 275.183V252.853H218.807V244.943H223.917V233.883C223.917 229.823 225.013 226.556 227.207 224.083C229.4 221.61 232.597 220.373 236.797 220.373C238.01 220.373 239.363 220.56 240.857 220.933C242.35 221.306 243.657 221.89 244.777 222.683L241.067 229.123C240.6 228.563 240.063 228.19 239.457 228.003C238.85 227.77 238.29 227.653 237.777 227.653C236.283 227.653 235.07 228.166 234.137 229.193C233.25 230.173 232.807 231.806 232.807 234.093V244.943H242.047V252.853H232.807V275.183H223.917Z" fill="white"/>
<defs>
<linearGradient id="paint0_linear_191_114" x1="283.833" y1="203.645" x2="41.6471" y2="155.024" gradientUnits="userSpaceOnUse">
<stop stop-color="#61D4F7"/>
<stop offset="1" stop-color="#E7327B"/>
</linearGradient>
<linearGradient id="paint1_linear_191_114" x1="397.367" y1="250.12" x2="474.874" y2="250.598" gradientUnits="userSpaceOnUse">
<stop stop-color="#E7327B"/>
<stop offset="1" stop-color="#61D4F7"/>
</linearGradient>
</defs>
</svg>
