<svg width="728" height="700" viewBox="0 0 728 700" fill="none" xmlns="http://www.w3.org/2000/svg">
<path d="M377 700C331.037 700 285.525 690.947 243.061 673.358C200.597 655.769 162.013 629.988 129.513 597.487C97.012 564.987 71.2312 526.403 53.6421 483.939C36.053 441.475 26.9999 395.963 26.9999 350C26.9999 304.037 36.053 258.525 53.6421 216.061C71.2313 173.597 97.0121 135.013 129.513 102.513C162.013 70.0121 200.597 44.2313 243.061 26.6421C285.525 9.05301 331.037 -8.04045e-06 377 -3.55537e-06L377 350L377 700Z" fill="#131313"/>
<path d="M661.374 153.124C700.613 209.553 722.077 276.428 723.007 345.152C723.938 413.877 704.293 481.308 666.597 538.779" stroke="#131313" stroke-width="8"/>
<path d="M75.1309 313H86.4709L93.6709 327.13L100.871 313H112.211L98.9809 337.48L119.861 376H108.521L93.6709 347.74L78.8209 376H67.4809L88.3609 337.48L75.1309 313ZM126.702 313H147.672C150.552 313 153.192 313.48 155.592 314.44C158.052 315.4 160.182 316.75 161.982 318.49C163.782 320.23 165.162 322.33 166.122 324.79C167.142 327.25 167.652 329.98 167.652 332.98C167.652 335.98 167.142 338.71 166.122 341.17C165.162 343.63 163.782 345.73 161.982 347.47C160.182 349.21 158.052 350.56 155.592 351.52C153.192 352.48 150.552 352.96 147.672 352.96H136.782V376H126.702V313ZM136.782 343.42H147.672C150.852 343.42 153.342 342.46 155.142 340.54C157.002 338.62 157.932 336.1 157.932 332.98C157.932 329.86 157.002 327.34 155.142 325.42C153.342 323.5 150.852 322.54 147.672 322.54H136.782V343.42ZM176.169 331H186.069V335.68C187.149 334.24 188.559 333.01 190.299 331.99C192.039 330.97 194.499 330.46 197.679 330.46V340H196.779C193.599 340 191.019 341.02 189.039 343.06C187.059 345.1 186.069 347.8 186.069 351.16V376H176.169V331ZM202.548 353.5C202.548 350.2 203.118 347.17 204.258 344.41C205.398 341.59 206.988 339.16 209.028 337.12C211.128 335.02 213.558 333.4 216.318 332.26C219.138 331.06 222.228 330.46 225.588 330.46C228.888 330.46 231.948 331.06 234.768 332.26C237.588 333.4 240.018 335.02 242.058 337.12C244.158 339.16 245.778 341.59 246.918 344.41C248.058 347.17 248.628 350.2 248.628 353.5C248.628 356.8 248.058 359.86 246.918 362.68C245.778 365.44 244.158 367.87 242.058 369.97C240.018 372.01 237.588 373.63 234.768 374.83C231.948 375.97 228.888 376.54 225.588 376.54C222.228 376.54 219.138 375.97 216.318 374.83C213.558 373.63 211.128 372.01 209.028 369.97C206.988 367.87 205.398 365.44 204.258 362.68C203.118 359.86 202.548 356.8 202.548 353.5ZM212.628 353.5C212.628 355.48 212.928 357.31 213.528 358.99C214.188 360.61 215.088 362.02 216.228 363.22C217.368 364.42 218.718 365.35 220.278 366.01C221.898 366.67 223.668 367 225.588 367C227.508 367 229.248 366.67 230.808 366.01C232.428 365.35 233.808 364.42 234.948 363.22C236.088 362.02 236.958 360.61 237.558 358.99C238.218 357.31 238.548 355.48 238.548 353.5C238.548 351.52 238.218 349.72 237.558 348.1C236.958 346.42 236.088 344.98 234.948 343.78C233.808 342.58 232.428 341.65 230.808 340.99C229.248 340.33 227.508 340 225.588 340C223.668 340 221.898 340.33 220.278 340.99C218.718 341.65 217.368 342.58 216.228 343.78C215.088 344.98 214.188 346.42 213.528 348.1C212.928 349.72 212.628 351.52 212.628 353.5ZM256.689 353.5C256.689 350.2 257.259 347.17 258.399 344.41C259.539 341.59 261.129 339.16 263.169 337.12C265.269 335.02 267.699 333.4 270.459 332.26C273.279 331.06 276.369 330.46 279.729 330.46C283.029 330.46 286.089 331.06 288.909 332.26C291.729 333.4 294.159 335.02 296.199 337.12C298.299 339.16 299.919 341.59 301.059 344.41C302.199 347.17 302.769 350.2 302.769 353.5C302.769 356.8 302.199 359.86 301.059 362.68C299.919 365.44 298.299 367.87 296.199 369.97C294.159 372.01 291.729 373.63 288.909 374.83C286.089 375.97 283.029 376.54 279.729 376.54C276.369 376.54 273.279 375.97 270.459 374.83C267.699 373.63 265.269 372.01 263.169 369.97C261.129 367.87 259.539 365.44 258.399 362.68C257.259 359.86 256.689 356.8 256.689 353.5ZM266.769 353.5C266.769 355.48 267.069 357.31 267.669 358.99C268.329 360.61 269.229 362.02 270.369 363.22C271.509 364.42 272.859 365.35 274.419 366.01C276.039 366.67 277.809 367 279.729 367C281.649 367 283.389 366.67 284.949 366.01C286.569 365.35 287.949 364.42 289.089 363.22C290.229 362.02 291.099 360.61 291.699 358.99C292.359 357.31 292.689 355.48 292.689 353.5C292.689 351.52 292.359 349.72 291.699 348.1C291.099 346.42 290.229 344.98 289.089 343.78C287.949 342.58 286.569 341.65 284.949 340.99C283.389 340.33 281.649 340 279.729 340C277.809 340 276.039 340.33 274.419 340.99C272.859 341.65 271.509 342.58 270.369 343.78C269.229 344.98 268.329 346.42 267.669 348.1C267.069 349.72 266.769 351.52 266.769 353.5ZM316.303 324.16C316.303 322.12 316.633 320.35 317.293 318.85C317.953 317.35 318.853 316.15 319.993 315.25C321.133 314.29 322.423 313.6 323.863 313.18C325.363 312.7 326.893 312.46 328.453 312.46C330.493 312.46 332.323 312.79 333.943 313.45C335.563 314.11 336.973 315.16 338.173 316.6L331.513 323.17C331.273 322.81 330.943 322.51 330.523 322.27C330.103 321.97 329.563 321.82 328.903 321.82C328.063 321.82 327.403 322.09 326.923 322.63C326.443 323.17 326.203 323.89 326.203 324.79V331H340.603V340.36H326.203V376H316.303V340.36H307.213V331H316.303V324.16Z" fill="white"/>
</svg>
